<?xml version="1.0" encoding="utf-8"?>
<!-- Generator: Adobe Illustrator 24.0.1, SVG Export Plug-In . SVG Version: 6.00 Build 0)  -->
<svg version="1.1" id="Layer_1" xmlns="http://www.w3.org/2000/svg" xmlns:xlink="http://www.w3.org/1999/xlink" x="0px" y="0px"
	 viewBox="0 0 222.2 90" style="enable-background:new 0 0 222.2 90;" xml:space="preserve">
<style type="text/css">
	.st0{fill:#1A1A1A;}
	.st1{fill:#FFFFFF;}
</style>
<g>
	<rect y="0" class="st0" width="90" height="90"/>
	<g>
		<path class="st1" d="M15.9,27.7l21.4,40.2l8.4-13.4h-2.2l-8.3-15.4C31.3,32.1,23.9,27.7,15.9,27.7L15.9,27.7z"/>
		<path class="st1" d="M37.2,27.7l21.4,40.2L67,54.5h-2.2l-8.3-15.4C52.6,32.1,45.2,27.7,37.2,27.7L37.2,27.7z"/>
		<polygon class="st1" points="58.5,27.8 71.4,27.8 64.7,40.3 		"/>
	</g>
</g>
<g>
	<path d="M112,32.1v-9h1.9c0.9,0,1.6,0.1,2.2,0.3c0.6,0.2,1.1,0.5,1.5,0.9c0.9,0.9,1.4,2,1.4,3.4s-0.5,2.5-1.5,3.4
		c-0.5,0.4-1,0.7-1.5,0.9c-0.5,0.2-1.2,0.3-2.1,0.3H112V32.1z M113.4,30.8h0.6c0.6,0,1.1-0.1,1.5-0.2s0.8-0.4,1.1-0.7
		c0.7-0.6,1-1.4,1-2.4s-0.3-1.8-1-2.4c-0.6-0.6-1.5-0.8-2.6-0.8h-0.6V30.8z"/>
	<path d="M125.7,24.3h-3.6v2.2h3.5v1.3h-3.5v3h3.6v1.3h-5v-9h5V24.3z"/>
	<path d="M132.6,24.4l-1.1,0.7c-0.2-0.4-0.4-0.6-0.6-0.7c-0.2-0.1-0.4-0.2-0.8-0.2c-0.4,0-0.7,0.1-0.9,0.3c-0.2,0.2-0.4,0.5-0.4,0.8
		c0,0.4,0.3,0.8,1,1.1l0.9,0.4c0.7,0.3,1.3,0.7,1.6,1.1s0.5,1,0.5,1.6c0,0.8-0.3,1.5-0.8,2.1c-0.6,0.5-1.3,0.8-2.1,0.8
		s-1.4-0.2-1.9-0.7c-0.5-0.5-0.8-1.1-0.9-2l1.4-0.3c0.1,0.5,0.2,0.9,0.3,1.1c0.3,0.4,0.7,0.6,1.2,0.6c0.4,0,0.8-0.1,1.1-0.4
		s0.4-0.6,0.4-1.1c0-0.2,0-0.3-0.1-0.5s-0.1-0.3-0.2-0.4s-0.2-0.2-0.4-0.3s-0.4-0.2-0.6-0.3l-0.9-0.4c-1.2-0.5-1.9-1.3-1.9-2.3
		c0-0.7,0.3-1.2,0.8-1.7c0.5-0.5,1.2-0.7,1.9-0.7C131.2,22.9,132,23.4,132.6,24.4z"/>
	<path d="M135.9,23v9h-1.4v-9H135.9z"/>
	<path d="M142.7,27.4h3.7v0.3c0,0.7-0.1,1.3-0.2,1.8c-0.2,0.5-0.4,0.9-0.8,1.4c-0.8,0.9-1.9,1.4-3.2,1.4s-2.3-0.5-3.3-1.4
		c-0.9-0.9-1.4-2-1.4-3.3s0.5-2.4,1.4-3.3s2-1.4,3.4-1.4c0.7,0,1.4,0.1,2,0.4s1.2,0.8,1.7,1.4l-1,0.9c-0.7-1-1.6-1.5-2.7-1.5
		c-1,0-1.8,0.3-2.4,1c-0.6,0.6-1,1.5-1,2.4c0,1,0.4,1.8,1.1,2.5c0.7,0.6,1.4,0.9,2.2,0.9c0.7,0,1.3-0.2,1.8-0.7s0.8-1,0.9-1.6h-2.3
		v-1.2H142.7z"/>
	<path d="M148.1,32.1v-9.7l6.6,6.9V23h1.4v9.6l-6.6-6.9V32L148.1,32.1L148.1,32.1z"/>
</g>
<g>
	<path d="M116.5,41.4h-3.6v2.2h3.5v1.3h-3.5v3h3.6v1.3h-5v-9h5V41.4z"/>
	<path d="M118.3,49.2v-9.7l6.6,6.9v-6.3h1.4v9.6l-6.6-6.9v6.3L118.3,49.2L118.3,49.2z"/>
	<path d="M133.4,41.4h-3.6v2.2h3.5v1.3h-3.5v3h3.6v1.3h-5v-9h5V41.4z"/>
	<path d="M138.2,45.3l2.8,3.9h-1.7l-2.6-3.7h-0.2v3.7h-1.4v-9h1.6c1.2,0,2.1,0.2,2.6,0.7c0.6,0.5,0.9,1.2,0.9,2
		c0,0.6-0.2,1.2-0.6,1.7S138.8,45.2,138.2,45.3z M136.5,44.3h0.4c1.3,0,1.9-0.5,1.9-1.5c0-0.9-0.6-1.4-1.9-1.4h-0.5v2.9H136.5z"/>
	<path d="M146.8,44.5h3.7v0.3c0,0.7-0.1,1.3-0.2,1.8c-0.2,0.5-0.4,0.9-0.8,1.4c-0.8,0.9-1.9,1.4-3.2,1.4S144,48.9,143,48
		c-0.9-0.9-1.4-2-1.4-3.3s0.5-2.4,1.4-3.3c0.9-0.9,2-1.4,3.4-1.4c0.7,0,1.4,0.1,2,0.4c0.6,0.3,1.2,0.8,1.7,1.4l-1,0.9
		c-0.7-1-1.6-1.5-2.7-1.5c-1,0-1.8,0.3-2.4,1c-0.6,0.6-1,1.5-1,2.4c0,1,0.4,1.8,1.1,2.5c0.7,0.6,1.4,0.9,2.2,0.9
		c0.7,0,1.3-0.2,1.8-0.7s0.8-1,0.9-1.6h-2.3v-1.2H146.8z"/>
	<path d="M153.8,45.3l-3-5.1h1.6l2.1,3.6l2.1-3.6h1.6l-3,5.1v3.9h-1.4L153.8,45.3L153.8,45.3z"/>
</g>
<g>
	<path d="M110.8,65.4l1.9-9.7l3.1,7l3.2-7l1.7,9.7h-1.4l-0.9-5.5l-2.7,5.9l-2.6-5.9l-1,5.5H110.8z"/>
	<path d="M128,63.2h-3.9l-1,2.2h-1.5l4.5-9.6l4.3,9.6H129L128,63.2z M127.5,61.9l-1.3-3.1l-1.4,3.1H127.5z"/>
	<path d="M131.6,65.4v-9.7l6.6,6.9v-6.3h1.4V66l-6.6-6.9v6.3H131.6z"/>
	<path d="M143.1,56.4v5.4c0,0.8,0.1,1.3,0.4,1.7c0.4,0.5,0.9,0.8,1.6,0.8c0.7,0,1.2-0.3,1.6-0.8c0.3-0.3,0.4-0.9,0.4-1.7v-5.4h1.4
		v5.8c0,1-0.3,1.7-0.9,2.4c-0.7,0.7-1.5,1-2.5,1s-1.8-0.3-2.5-1c-0.6-0.6-0.9-1.4-0.9-2.4v-5.8C141.7,56.4,143.1,56.4,143.1,56.4z"
		/>
	<path d="M155.1,57.6h-3.2v2.2h3v1.3h-3v4.3h-1.4v-9h4.5L155.1,57.6L155.1,57.6z"/>
	<path d="M161.4,63.2h-3.9l-1,2.2H155l4.5-9.6l4.3,9.6h-1.5L161.4,63.2z M160.8,61.9l-1.3-3.1l-1.4,3.1H160.8z"/>
	<path d="M171.2,56.8v1.6c-0.8-0.7-1.6-1-2.4-1c-0.9,0-1.7,0.3-2.3,1s-1,1.5-1,2.4s0.3,1.8,1,2.4s1.4,1,2.4,1c0.5,0,0.9-0.1,1.2-0.2
		c0.2-0.1,0.4-0.2,0.6-0.3s0.4-0.3,0.6-0.5v1.6c-0.8,0.4-1.6,0.7-2.5,0.7c-1.3,0-2.4-0.5-3.3-1.4c-0.9-0.9-1.4-2-1.4-3.3
		c0-1.2,0.4-2.2,1.1-3.1c0.9-1.1,2.2-1.7,3.6-1.7C169.7,56.2,170.5,56.4,171.2,56.8z"/>
	<path d="M175.5,57.6v7.8h-1.4v-7.8H172v-1.3h5.5v1.3C177.5,57.6,175.5,57.6,175.5,57.6z"/>
	<path d="M180.1,56.4v5.4c0,0.8,0.1,1.3,0.4,1.7c0.4,0.5,0.9,0.8,1.6,0.8c0.7,0,1.2-0.3,1.6-0.8c0.3-0.3,0.4-0.9,0.4-1.7v-5.4h1.4
		v5.8c0,1-0.3,1.7-0.9,2.4c-0.7,0.7-1.5,1-2.5,1s-1.8-0.3-2.5-1c-0.6-0.6-0.9-1.4-0.9-2.4v-5.8C178.7,56.4,180.1,56.4,180.1,56.4z"
		/>
	<path d="M190.7,61.6l2.8,3.9h-1.7l-2.6-3.7H189v3.7h-1.4v-9h1.6c1.2,0,2.1,0.2,2.6,0.7c0.6,0.5,0.9,1.2,0.9,2
		c0,0.6-0.2,1.2-0.6,1.7S191.3,61.4,190.7,61.6z M189,60.5h0.4c1.3,0,1.9-0.5,1.9-1.5c0-0.9-0.6-1.4-1.9-1.4H189V60.5z"/>
	<path d="M196.2,56.4v9h-1.4v-9H196.2z"/>
	<path d="M198.4,65.4v-9.7l6.6,6.9v-6.3h1.4V66l-6.6-6.9v6.3H198.4z"/>
	<path d="M213.3,60.7h3.7V61c0,0.7-0.1,1.3-0.2,1.8c-0.2,0.5-0.4,0.9-0.8,1.4c-0.8,0.9-1.9,1.4-3.2,1.4s-2.3-0.5-3.3-1.4
		c-0.9-0.9-1.4-2-1.4-3.3s0.5-2.4,1.4-3.3c0.9-0.9,2-1.4,3.4-1.4c0.7,0,1.4,0.1,2,0.4c0.6,0.3,1.2,0.8,1.7,1.4l-1,0.9
		c-0.7-1-1.6-1.5-2.7-1.5c-1,0-1.8,0.3-2.4,1c-0.6,0.6-1,1.5-1,2.4c0,1,0.4,1.8,1.1,2.5c0.7,0.6,1.4,0.9,2.2,0.9
		c0.7,0,1.3-0.2,1.8-0.7c0.5-0.5,0.8-1,0.9-1.6h-2.3v-1.2H213.3z"/>
</g>
</svg>
